<svg xmlns="http://www.w3.org/2000/svg" version="1.1" xmlns:xlink="http://www.w3.org/1999/xlink" xmlns:svgjs="http://svgjs.com/svgjs" width="1440" height="560" preserveAspectRatio="none" viewBox="0 0 1440 560"><g mask="url(&quot;#SvgjsMask1620&quot;)" fill="none"><rect width="1440" height="560" x="0" y="0" fill="url(#SvgjsRadialGradient1621)"></rect><path d="M1440 0L788.98 0L1440 124.13z" fill="rgba(255, 255, 255, .1)"></path><path d="M788.98 0L1440 124.13L1440 336.64L742.5600000000001 0z" fill="rgba(255, 255, 255, .075)"></path><path d="M742.5600000000001 0L1440 336.64L1440 410.09999999999997L680.8100000000001 0z" fill="rgba(255, 255, 255, .05)"></path><path d="M680.8100000000001 0L1440 410.09999999999997L1440 435.73999999999995L548.4000000000001 0z" fill="rgba(255, 255, 255, .025)"></path><path d="M0 560L579.46 560L0 403.3z" fill="rgba(0, 0, 0, .1)"></path><path d="M0 403.3L579.46 560L709.86 560L0 189.86z" fill="rgba(0, 0, 0, .075)"></path><path d="M0 189.86L709.86 560L1036.93 560L0 97.69000000000001z" fill="rgba(0, 0, 0, .05)"></path><path d="M0 97.69L1036.93 560L1146.5800000000002 560L0 72.22z" fill="rgba(0, 0, 0, .025)"></path></g><defs><mask id="SvgjsMask1620"><rect width="1440" height="560" fill="#ffffff"></rect></mask><radialGradient cx="100%" cy="50%" r="1466.97" gradientUnits="userSpaceOnUse" id="SvgjsRadialGradient1621"><stop stop-color="rgba(21, 157, 116, 1)" offset="0"></stop><stop stop-color="rgba(255, 255, 255, 1)" offset="0.82"></stop></radialGradient></defs></svg>